# xmcd
#
# Track frame offsets:
#	150
#	20040
#	40592
#	68287
#	90995
#	109245
#	130422
#	152652
#	170807
#	193625
#	217505
#	240005
#
# Disc length: 3442 seconds
#
# Revision: 0
# Processed by: cddbd v1.4PL0 Copyright (c) Steve Scherf et al.
# Submitted via: dBpowerAMP V4.0
#
DISCID=8b0d700c
DTITLE=True Believers - Don't Count Me Out
DYEAR=1900
DGENRE=
TTITLE0=Clean Inside
TTITLE1=Waitin'
TTITLE2=Don't Leave Me Jesus
TTITLE3=Another Blessing
TTITLE4=Don't Count Me Out
TTITLE5=I Don't Need No Rock
TTITLE6=Give Your Life To Jesus
TTITLE7=All About You
TTITLE8=I Get Joy
TTITLE9=Everything I Have
TTITLE10=Where Jesus Is
TTITLE11=May The Lord Watch
EXTD=
EXTT0=
EXTT1=
EXTT2=
EXTT3=
EXTT4=
EXTT5=
EXTT6=
EXTT7=
EXTT8=
EXTT9=
EXTT10=
EXTT11=
PLAYORDER=
